<svg width="22" height="20" viewBox="0 0 22 20" fill="none" xmlns="http://www.w3.org/2000/svg">
<path d="M19.8583 2.60999C19.3372 2.099 18.7186 1.69364 18.0377 1.41708C17.3568 1.14052 16.627 0.998169 15.89 0.998169C15.1529 0.998169 14.4231 1.14052 13.7422 1.41708C13.0613 1.69364 12.4427 2.099 11.9216 2.60999L10.8403 3.66999L9.75892 2.60999C8.70645 1.5783 7.27899 0.998704 5.79058 0.998704C4.30216 0.998704 2.87471 1.5783 1.82224 2.60999C0.769768 3.64169 0.178497 5.04096 0.178497 6.49999C0.178497 7.95903 0.769768 9.3583 1.82224 10.39L2.90358 11.45L10.8403 19.23L18.7769 11.45L19.8583 10.39C20.3796 9.87924 20.7931 9.27281 21.0752 8.60535C21.3574 7.93789 21.5026 7.22248 21.5026 6.49999C21.5026 5.77751 21.3574 5.0621 21.0752 4.39464C20.7931 3.72718 20.3796 3.12075 19.8583 2.60999Z" fill="white"/>
</svg>
